<svg width="370" height="100" viewBox="0 0 370 100" fill="none" xmlns="http://www.w3.org/2000/svg">
<path d="M140.325 44.8998C150.176 44.8998 157.844 40.0289 158.717 29.1006H149.614C148.305 34.596 144.814 36.8441 140.325 36.8441C132.656 36.8441 129.601 30.5993 129.601 22.4187C129.601 14.238 132.719 8.05574 140.325 8.05574C144.876 8.05574 148.305 10.3038 149.614 15.7368H158.717C157.844 4.87091 150.176 0 140.325 0C127.98 0 120 8.30552 120 22.4187C120 36.5943 127.98 44.8998 140.325 44.8998Z" fill="#1E1E1E"/>
<path d="M226.002 44.8998C238.596 44.8998 246.825 35.7825 246.825 22.4187C246.825 8.99245 238.596 0 226.002 0C213.408 0 205.178 8.99245 205.178 22.4187C205.178 35.7825 213.408 44.8998 226.002 44.8998ZM226.002 36.8441C218.832 36.8441 214.779 31.0989 214.779 22.4187C214.779 13.676 218.832 8.05574 226.002 8.05574C233.171 8.05574 237.224 13.676 237.224 22.4187C237.224 31.0989 233.171 36.8441 226.002 36.8441Z" fill="#1E1E1E"/>
<path d="M310.04 44.8998C320.639 44.8998 327.995 39.342 327.995 27.6643V0.562028H318.581V26.9773C318.581 33.4719 315.402 36.7816 310.04 36.7816C304.678 36.7816 301.436 33.4719 301.436 26.9773V0.562028H292.022V27.6643C292.022 39.342 299.316 44.8998 310.04 44.8998Z" fill="#1E1E1E"/>
<path d="M351.791 44.8998C361.704 44.8998 369.497 40.8407 369.497 31.4111C369.497 24.7917 365.569 20.8575 355.344 18.9216L349.484 17.7976C345.556 17.1106 344.496 14.9874 344.496 12.9891C344.496 10.3038 346.367 7.7435 351.354 7.7435C355.594 7.7435 358.836 9.49203 358.711 13.4262H368.312C368.312 4.49623 361.205 0 351.23 0C341.441 0 334.708 4.24644 334.708 12.6144C334.708 20.5452 340.506 23.6676 347.364 25.0415L353.661 26.228C357.589 26.9773 359.584 28.4761 359.584 31.4736C359.584 35.0331 356.903 37.1563 351.853 37.1563C345.868 37.1563 343.374 33.909 343.187 29.9748H333.523C333.523 39.5918 340.631 44.8998 351.791 44.8998Z" fill="#1E1E1E"/>
<path d="M191.592 1V18.6914H182.41V26.3086H191.592V44H201V1H191.592Z" fill="#1E1E1E"/>
<path d="M174.408 18.6914H174.41V26.3086H174.408V44H165V1H174.408V18.6914Z" fill="#1E1E1E"/>
<path fill-rule="evenodd" clip-rule="evenodd" d="M236.287 99H205.862V56H235.664V63.9857H215.214V73.63H233.793V80.8171H215.214V91.0143H236.287V99Z" fill="#1E1E1E"/>
<path d="M140.824 99.8998C153.418 99.8998 161.647 90.7825 161.647 77.4187C161.647 63.9925 153.418 55 140.824 55C128.23 55 120 63.9925 120 77.4187C120 90.7825 128.23 99.8998 140.824 99.8998ZM140.824 91.8441C133.654 91.8441 129.601 86.0989 129.601 77.4187C129.601 68.676 133.654 63.0557 140.824 63.0557C147.993 63.0557 152.046 68.676 152.046 77.4187C152.046 86.0989 147.993 91.8441 140.824 91.8441Z" fill="#1E1E1E"/>
<path fill-rule="evenodd" clip-rule="evenodd" d="M0.0283203 88.8712L11.1878 99.9801L22.3473 88.8712L11.1878 77.7622L0.0283203 88.8712Z" fill="#168F9C"/>
<path fill-rule="evenodd" clip-rule="evenodd" d="M100.463 11.109L89.303 0L78.1436 11.109L89.303 22.218L100.463 11.109Z" fill="#168F9C"/>
<path fill-rule="evenodd" clip-rule="evenodd" d="M61.4045 61.0988L50.2449 72.2079L39.0855 61.0988L27.926 49.9898L39.0855 38.8809L50.2449 27.7719L61.4045 38.8809L72.5638 49.9898L61.4045 61.0988ZM94.8828 49.9896L83.7232 38.8807L72.5638 27.7716L61.4042 16.6626L50.2449 5.55365L39.0853 16.6626L27.9259 27.7716L16.7664 38.8807L5.60693 49.9896L16.7664 61.0985L27.9259 72.2077L39.0853 83.3166L50.2449 94.4255L61.4042 83.3166L72.5638 72.2077L83.7232 61.0985L94.8828 49.9896Z" fill="#168F9C"/>
<path fill-rule="evenodd" clip-rule="evenodd" d="M78.1313 88.891L89.2908 100L100.45 88.891L89.2908 77.782L78.1313 88.891Z" fill="#168F9C"/>
<path fill-rule="evenodd" clip-rule="evenodd" d="M22.319 11.116L11.1595 0.00701904L0 11.116L11.1595 22.225L22.319 11.116Z" fill="#168F9C"/>
<path d="M174.138 56H165V99H174.137V71.2957H174.138V56Z" fill="#1E1E1E"/>
<path d="M182.138 84.1792L191.132 99H201V56H191.863V84.2571H191.68L182.138 68.5604V84.1792Z" fill="#1E1E1E"/>
<path d="M277.948 28.4761L287.112 44.2753H277.885L269.736 29.975V21.6069C274.835 21.6009 277.075 19.042 277.075 15.1748C277.075 11.2406 274.83 8.68022 269.718 8.68022H261.738V18.4357H261.736V30.8039H261.738V44.2753H252.386V0.562042H270.03C281.626 0.562042 286.676 6.61946 286.676 15.1748C286.676 21.4195 283.995 26.2904 277.948 28.4761Z" fill="#1E1E1E"/>
</svg>
