<svg width="126" height="106" viewBox="0 0 126 106" fill="none" xmlns="http://www.w3.org/2000/svg">
<path fill-rule="evenodd" clip-rule="evenodd" d="M56.1508 104.342C58.2986 105.37 60.4114 105.913 63.2727 105.913L63.2732 105.913C68.1998 105.913 72.6738 103.933 75.9031 100.737L113.706 63.6013C121.27 56.4011 126.501 46.4456 125.962 35.0428C125.629 27.9821 123.846 21.8697 120.796 16.8139C114.918 7.06953 104.329 1.24873 90.3347 0.120105C80.6726 -0.663665 71.7594 2.41969 65.1694 8.45785C64.638 8.94013 64.125 9.43966 63.6286 9.95642C63.4632 10.1205 63.3149 10.2752 63.1583 10.4476L50.3108 23.1593L47.9077 25.533L37.0217 12.4734C33.0001 8.02315 28.9613 6.11859 22.9815 6.06738H22.7988C19.3081 6.06738 16.0527 7.04971 13.276 8.7322C13.0145 8.88582 12.7624 9.03944 12.5098 9.2103C12.2661 9.3728 12.0223 9.54366 11.7786 9.72289C11.7358 9.75482 11.6926 9.78673 11.6493 9.81873C11.507 9.92389 11.3633 10.03 11.23 10.1414C11.0646 10.2694 10.908 10.3975 10.7514 10.5343C10.6293 10.6368 10.5076 10.7392 10.3944 10.8416C10.182 11.0262 9.67342 11.524 9.43956 11.7534C9.53756 11.6521 9.63818 11.5504 9.74148 11.4482C2.95209 18.0794 0 25.1469 0 35.3009C0 45.4549 4.17813 54.6444 10.9331 61.2761L10.9242 61.2845L11.8992 62.249L49.363 99.3162L51.3912 101.139C52.8208 102.423 54.4174 103.513 56.1508 104.342Z" fill="url(#paint0_linear_201_91)"/>
<defs>
<linearGradient id="paint0_linear_201_91" x1="-47.5" y1="32.9131" x2="47.4867" y2="156.042" gradientUnits="userSpaceOnUse">
<stop stop-color="white"/>
<stop offset="1" stop-color="#DB1414"/>
</linearGradient>
</defs>
</svg>
